# xmcd
# 
# Track frame offsets:
#     150
#     17880
#     34831
#     52562
# 
# Disc length: 925
# 
# Revision: 0
# Processed by: cddbd v1.5.2PL0 Copyright (c) Steve Scherf et al.
# Submitted via: fre:ac v1.0.27
# 
DISCID=24039b04
DTITLE=＝LOVE - Want you!Want you!
DYEAR=2002
DGENRE=JPop
TTITLE0=Want you! Want you!
TTITLE1=今、この船に乗れ！
TTITLE2=Never mind [TV MIX]
TTITLE3=Dear ．．． [TV MIX]
EXTD=YEAR: 2002
EXTT0=
EXTT1=
EXTT2=
EXTT3=
PLAYORDER=
